<?xml version="1.0" encoding="UTF-8"?>
<svg width="32px" height="32px" viewBox="0 0 32 32" version="1.1" xmlns="http://www.w3.org/2000/svg" xmlns:xlink="http://www.w3.org/1999/xlink">
    <!-- Generator: sketchtool 58 (101010) - https://sketch.com -->
    <title>05F8EB1B-E374-4A55-82A4-1E6F7C5AE8FB</title>
    <desc>Created with sketchtool.</desc>
    <g id="Page-1" stroke="none" stroke-width="1" fill="none" fill-rule="evenodd">
        <g id="Settings" transform="translate(-815.000000, -52.000000)" fill="#FFFFFF" fill-rule="nonzero">
            <g id="settings" transform="translate(815.000000, 52.000000)">
                <path d="M28.9974893,12.0265107 L28.3194386,12.0265107 C28.0991813,11.337232 27.8212865,10.6676647 27.4883743,10.0243587 L27.9685614,9.54417154 C29.1328499,8.3811306 29.1016608,6.51727096 27.9689357,5.38573099 L26.5522651,3.96912281 C25.4214113,2.83677193 23.5571774,2.80396101 22.3938246,3.96868616 L21.9132632,4.44924756 C21.2699571,4.11639766 20.6003275,3.83844055 19.9111111,3.61818324 L19.9111111,2.94007018 C19.9111111,1.31892398 18.5921871,-2.84217094e-14 16.9709786,-2.84217094e-14 L14.9665809,-2.84217094e-14 C13.3454347,-2.84217094e-14 12.0265107,1.31892398 12.0265107,2.94007018 L12.0265107,3.61818324 C11.3372943,3.83837817 10.6676647,4.11633528 10.0243587,4.44924756 L9.54423392,3.96912281 C8.38318908,2.80670565 6.51901754,2.83396491 5.38585575,3.96874854 L3.96906043,5.3854191 C2.83677193,6.51646004 2.80402339,8.38044444 3.96868616,9.54385965 L4.44924756,10.0244211 C4.11633528,10.6677271 3.83844055,11.337232 3.61818324,12.0265731 L2.94013255,12.0265731 C1.31898635,12.0265107 -1.13686838e-13,13.3454347 -1.13686838e-13,14.9665809 L-1.13686838e-13,16.9710409 C-1.13686838e-13,18.5921871 1.31898635,19.9111111 2.94013255,19.9111111 L3.61818324,19.9111111 C3.83844055,20.6003899 4.11633528,21.2699571 4.44924756,21.9132632 L3.96906043,22.3934503 C2.80477193,23.5564912 2.83596101,25.4203509 3.96868616,26.5518908 L5.38535673,27.968499 C6.51621053,29.1008499 8.38044444,29.1336608 9.54379727,27.9689357 L10.0243587,27.4883743 C10.6676647,27.8212242 11.3372943,28.0991813 12.0265107,28.3194386 L12.0265107,28.9975517 C12.0265107,30.6186979 13.3454971,31.9376218 14.9666433,31.9376218 L16.9710409,31.9376218 C18.5921871,31.9376218 19.9111735,30.6186979 19.9111735,28.9975517 L19.9111735,28.3194386 C20.6003899,28.0992437 21.2700195,27.8212865 21.9133255,27.4883743 L22.3934503,27.968499 C23.5544951,29.1309162 25.4186043,29.1036569 26.5518285,27.9688733 L27.9686238,26.5521404 C29.1009123,25.4210994 29.1336608,23.557115 27.9689981,22.3936998 L27.4884366,21.9131384 C27.8213489,21.2698324 28.0992437,20.6003275 28.319501,19.9109864 L28.9975517,19.9109864 C30.6186979,19.9109864 31.9376842,18.5920624 31.9376842,16.9709162 L31.9376842,14.9664561 C31.9376842,13.3454347 30.6186355,12.0265107 28.9974893,12.0265107 L28.9974893,12.0265107 Z M15.9688109,22.9177388 C12.1371072,22.9177388 9.01988304,19.8004522 9.01988304,15.9688109 C9.01988304,12.1371696 12.1371072,9.01988304 15.9688109,9.01988304 C19.8005146,9.01988304 22.9177388,12.1371696 22.9177388,15.9688109 C22.9177388,19.8004522 19.8005146,22.9177388 15.9688109,22.9177388 Z" id="Shape"></path>
            </g>
        </g>
    </g>
</svg>